<?xml version="1.0" standalone="no"?>
<!DOCTYPE svg PUBLIC "-//W3C//DTD SVG 20010904//EN"
 "http://www.w3.org/TR/2001/REC-SVG-20010904/DTD/svg10.dtd">
<svg version="1.0" xmlns="http://www.w3.org/2000/svg"
 width="261.000000pt" height="261.000000pt" viewBox="0 0 261.000000 261.000000"
 preserveAspectRatio="xMidYMid meet">
<metadata>
Created by potrace 1.14, written by Peter Selinger 2001-2017
</metadata>
<g transform="translate(0.000000,261.000000) scale(0.100000,-0.100000)"
fill="#000000" stroke="none">
<path d="M1028 2453 c-10 -2 -21 -15 -24 -29 -6 -24 2 -44 66 -159 15 -27 44
-81 65 -120 21 -38 50 -91 64 -117 25 -47 44 -60 54 -35 2 6 -33 109 -79 227
-73 188 -102 243 -123 239 -3 -1 -14 -3 -23 -6z"/>
<path d="M1467 2005 c51 -35 26 -86 -51 -104 -53 -11 -215 -6 -286 9 -30 7
-84 26 -120 42 l-66 29 -64 -29 c-90 -39 -122 -58 -204 -123 -149 -118 -243
-248 -305 -423 -41 -116 -55 -217 -48 -349 20 -396 297 -738 684 -846 67 -18
74 -18 115 -3 58 21 266 21 323 0 36 -14 46 -14 105 3 262 72 492 267 606 513
63 137 78 212 77 386 0 138 -3 165 -27 243 -76 253 -251 463 -484 581 -64 33
-222 86 -253 86 l-23 0 21 -15z"/>
</g>
</svg>
